<svg width="85" height="84" viewBox="0 0 85 84" fill="none" xmlns="http://www.w3.org/2000/svg">
<rect x="0.568359" width="84" height="84" rx="8" fill="white"/>
<path d="M68.5749 44.0809C69.2328 42.7778 69.2328 41.2221 68.5749 39.919L67.8937 38.5697C67.7452 38.2755 67.6933 37.948 67.7435 37.6222L67.9744 36.1284C68.1975 34.6859 67.7167 33.2062 66.6883 32.1703L65.6236 31.0975C65.3914 30.8636 65.2407 30.568 65.188 30.2427L64.9461 28.7506C64.7149 27.3258 63.8181 26.0791 62.5429 25.4062L61.2328 24.6336C61.2075 24.6186 61.1818 24.6044 61.1556 24.591C60.8625 24.4404 60.628 24.2058 60.4774 23.9127L59.7861 22.5685C59.1343 21.3009 57.8052 20.3635 56.3175 20.1222L54.8256 19.8802C54.5002 19.8274 54.2047 19.6769 53.9707 19.4448L52.898 18.3798C51.862 17.3515 50.3827 16.8711 48.9399 17.0938L47.4461 17.3246C47.1202 17.375 46.7927 17.3231 46.4986 17.1746L45.1492 16.4934C43.8463 15.8356 42.2905 15.8355 40.9876 16.4934L39.6381 17.1746C39.344 17.323 39.0166 17.3748 38.6906 17.3247L37.1968 17.0939C35.754 16.8707 34.2747 17.3516 33.2387 18.3799L32.1658 19.4447C31.932 19.6769 31.6365 19.8274 31.3111 19.8802L29.8189 20.1222C28.3313 20.3635 27.0023 21.3008 26.3505 22.5685L25.6593 23.9127C25.5086 24.2057 25.2741 24.4404 24.9809 24.591L23.6366 25.2823C22.369 25.9341 21.4316 27.2631 21.1904 28.7507L20.9484 30.2429C20.8956 30.5682 20.745 30.8637 20.5128 31.0976L19.4482 32.1704C18.4199 33.2063 17.9391 34.6859 18.1621 36.1284L18.393 37.6223C18.4434 37.948 18.3915 38.2755 18.2429 38.5697L17.5617 39.919C16.9039 41.222 16.9039 42.7777 17.5617 44.0808L18.2429 45.4302C18.3914 45.7243 18.4433 46.0519 18.393 46.3776L18.1621 47.8715C17.9391 49.314 18.42 50.7936 19.4482 51.8295L20.513 52.9024C20.7452 53.1363 20.8959 53.4318 20.9486 53.7572L21.1906 55.2492C21.4318 56.7369 22.3692 58.066 23.6368 58.7178L24.981 59.4089C25.2742 59.5597 25.5087 59.7942 25.6594 60.0873L26.3506 61.4316C27.0025 62.6992 28.3315 63.6366 29.8191 63.8778L31.3112 64.1199C31.6366 64.1727 31.9321 64.3232 32.1659 64.5553L33.2388 65.6203C34.275 66.6486 35.7544 67.129 37.1968 66.9063L38.6907 66.6753C39.0163 66.6249 39.344 66.6769 39.6381 66.8254L40.9876 67.5067C41.639 67.8356 42.3537 68 43.0683 68C43.7831 68 44.4977 67.8356 45.1492 67.5067L46.4986 66.8254C46.7927 66.6769 47.1205 66.6251 47.446 66.6753L48.9398 66.9062C50.3824 67.129 51.8619 66.6484 52.898 65.6201L53.9707 64.5552C54.2046 64.323 54.5001 64.1725 54.8256 64.1197L56.3175 63.8776C57.7424 63.6466 58.9892 62.7498 59.6621 61.4745L60.4347 60.1644C60.4496 60.139 60.4639 60.1133 60.4773 60.0871C60.6279 59.7941 60.8625 59.5596 61.1556 59.4088L62.4997 58.7177C63.7978 58.0502 64.7124 56.7916 64.9461 55.3507L65.188 53.8587C65.2408 53.5334 65.3914 53.2378 65.6236 53.0039C65.6397 52.9876 66.715 51.8025 66.715 51.8025C67.7249 50.7679 68.1955 49.3014 67.9744 47.8715L67.7435 46.3777C67.6932 46.052 67.7451 45.7243 67.8936 45.4302L68.5749 44.0809Z" fill="#EE9944"/>
<path d="M68.5749 44.0809C69.2328 42.7778 69.2328 41.2221 68.5749 39.919L67.8937 38.5697C67.7452 38.2755 67.6933 37.948 67.7435 37.6222L67.9744 36.1284C68.1975 34.6859 67.7167 33.2062 66.6883 32.1703L65.6236 31.0975C65.3914 30.8636 65.2407 30.568 65.188 30.2427L64.9461 28.7506C64.7149 27.3258 63.8181 26.0791 62.5429 25.4062L61.2328 24.6336C61.2075 24.6186 61.1818 24.6044 61.1556 24.591C60.8625 24.4404 60.628 24.2058 60.4774 23.9127L59.7861 22.5685C59.1343 21.3009 57.8052 20.3635 56.3175 20.1222L54.8256 19.8802C54.5002 19.8274 54.2047 19.6769 53.9707 19.4448L52.898 18.3798C51.862 17.3515 50.3827 16.8711 48.9399 17.0938L47.4461 17.3246C47.1202 17.375 46.7927 17.3231 46.4986 17.1746L45.1492 16.4934C43.8463 15.8356 42.2905 15.8355 40.9876 16.4934L39.6381 17.1746C39.344 17.323 39.0166 17.3748 38.6906 17.3247L37.1968 17.0939C35.754 16.8707 34.2747 17.3516 33.2387 18.3799L32.1658 19.4447C31.932 19.6769 31.6365 19.8274 31.3111 19.8802L29.8189 20.1222C28.3313 20.3635 27.0023 21.3008 26.3505 22.5685L25.6593 23.9127C25.5086 24.2057 25.2741 24.4404 24.9809 24.591L23.6366 25.2823C22.369 25.9341 21.4316 27.2631 21.1904 28.7507L20.9484 30.2429C20.8956 30.5682 20.745 30.8637 20.5128 31.0976L19.4482 32.1704C18.4199 33.2063 17.9391 34.6859 18.1621 36.1284L18.393 37.6223C18.4434 37.948 18.3915 38.2755 18.2429 38.5697L17.5617 39.919C16.9039 41.222 16.9039 42.7777 17.5617 44.0808L18.2429 45.4302C18.3914 45.7243 18.4433 46.0519 18.393 46.3776L18.1621 47.8715C17.9391 49.314 18.42 50.7936 19.4482 51.8295L20.513 52.9024C20.7452 53.1363 20.8959 53.4318 20.9486 53.7572L21.1906 55.2492C21.4318 56.7369 22.3692 58.066 23.6368 58.7178L24.981 59.4089C25.2742 59.5597 25.5087 59.7942 25.6594 60.0873L26.3506 61.4316C27.0025 62.6992 28.3315 63.6366 29.8191 63.8778L31.3112 64.1199C31.6366 64.1727 31.9321 64.3232 32.1659 64.5553L33.2388 65.6203C34.275 66.6486 35.7544 67.129 37.1968 66.9063L38.6907 66.6753C39.0163 66.6249 39.344 66.6769 39.6381 66.8254L40.9876 67.5067C41.639 67.8356 42.3537 68 43.0683 68C43.7831 68 44.4977 67.8356 45.1492 67.5067L46.4986 66.8254C46.7927 66.6769 47.1205 66.6251 47.446 66.6753L48.9398 66.9062C50.3824 67.129 51.8619 66.6484 52.898 65.6201L53.9707 64.5552C54.2046 64.323 54.5001 64.1725 54.8256 64.1197L56.3175 63.8776C57.7424 63.6466 58.9892 62.7498 59.6621 61.4745L60.4347 60.1644C60.4496 60.139 60.4639 60.1133 60.4773 60.0871C60.6279 59.7941 60.8625 59.5596 61.1556 59.4088L62.4997 58.7177C63.7978 58.0502 64.7124 56.7916 64.9461 55.3507L65.188 53.8587C65.2408 53.5334 65.3914 53.2378 65.6236 53.0039C65.6397 52.9876 66.715 51.8025 66.715 51.8025C67.7249 50.7679 68.1955 49.3014 67.9744 47.8715L67.7435 46.3777C67.6932 46.052 67.7451 45.7243 67.8936 45.4302L68.5749 44.0809Z" fill="url(#paint0_radial_1021_6017)"/>
<path d="M43.0679 23.6162C32.9747 23.6162 24.6836 31.9096 24.6836 42.0005C24.6836 52.0937 32.9769 60.3848 43.0679 60.3848C53.1611 60.3848 61.4522 52.0915 61.4522 42.0005C61.4522 31.9073 53.1588 23.6162 43.0679 23.6162ZM53.6873 37.7993L50.6402 49.9878C50.4707 50.666 49.8613 51.1419 49.1621 51.1419H36.9737C36.2745 51.1419 35.6651 50.666 35.4956 49.9878L32.4485 37.7993C32.269 37.0813 32.6315 36.3382 33.3079 36.0375C33.9841 35.737 34.7787 35.966 35.1914 36.5804C35.6083 37.1933 37.1166 38.9534 38.4972 38.9534C38.7495 38.9534 39.5312 38.3661 40.3365 36.5506C41.0589 34.9219 41.5443 32.8262 41.5443 31.3356C41.5443 30.4942 42.2265 29.812 43.0679 29.812C43.9093 29.812 44.5915 30.4942 44.5915 31.3356C44.5915 32.8262 45.0769 34.9219 45.7993 36.5506C46.6047 38.3661 47.3863 38.9534 47.6386 38.9534C49.0603 38.9534 50.6078 37.0816 50.9444 36.5804C51.3571 35.9661 52.1518 35.7371 52.8279 36.0375C53.5043 36.3382 53.8668 37.0813 53.6873 37.7993Z" fill="#EE9944"/>
<path d="M43.0679 23.6162C32.9747 23.6162 24.6836 31.9096 24.6836 42.0005C24.6836 52.0937 32.9769 60.3848 43.0679 60.3848C53.1611 60.3848 61.4522 52.0915 61.4522 42.0005C61.4522 31.9073 53.1588 23.6162 43.0679 23.6162ZM53.6873 37.7993L50.6402 49.9878C50.4707 50.666 49.8613 51.1419 49.1621 51.1419H36.9737C36.2745 51.1419 35.6651 50.666 35.4956 49.9878L32.4485 37.7993C32.269 37.0813 32.6315 36.3382 33.3079 36.0375C33.9841 35.737 34.7787 35.966 35.1914 36.5804C35.6083 37.1933 37.1166 38.9534 38.4972 38.9534C38.7495 38.9534 39.5312 38.3661 40.3365 36.5506C41.0589 34.9219 41.5443 32.8262 41.5443 31.3356C41.5443 30.4942 42.2265 29.812 43.0679 29.812C43.9093 29.812 44.5915 30.4942 44.5915 31.3356C44.5915 32.8262 45.0769 34.9219 45.7993 36.5506C46.6047 38.3661 47.3863 38.9534 47.6386 38.9534C49.0603 38.9534 50.6078 37.0816 50.9444 36.5804C51.3571 35.9661 52.1518 35.7371 52.8279 36.0375C53.5043 36.3382 53.8668 37.0813 53.6873 37.7993Z" fill="white"/>
<defs>
<radialGradient id="paint0_radial_1021_6017" cx="0" cy="0" r="1" gradientUnits="userSpaceOnUse" gradientTransform="translate(70.6117 16) rotate(133.55) scale(129.826 172.449)">
<stop stop-color="#FEAC2F"/>
<stop offset="0.327655" stop-color="#9B32AD"/>
<stop offset="0.699286" stop-color="#381AB2"/>
<stop offset="1" stop-color="#17082C"/>
</radialGradient>
</defs>
</svg>
