<svg width="85" height="84" viewBox="0 0 85 84" fill="none" xmlns="http://www.w3.org/2000/svg">
<rect x="0.568359" width="84" height="84" rx="8" fill="white"/>
<path d="M68.622 25.79C68.027 25.195 67.0628 25.195 66.4678 25.79L60.8204 31.4374H50.6855L43.0683 35.1241L35.4511 31.4375H25.3163L19.6689 25.79C19.0738 25.195 18.1097 25.195 17.5147 25.79C16.9196 26.3851 16.9196 27.3492 17.5147 27.9443L23.162 33.5918V63.4297C23.162 65.9585 25.2032 68 27.7323 68H58.4042C60.9333 68 62.9745 65.9585 62.9745 63.4297V33.5918L68.6219 27.9444C69.2171 27.3492 69.2171 26.3852 68.622 25.79Z" fill="#EE9944"/>
<path d="M68.622 25.79C68.027 25.195 67.0628 25.195 66.4678 25.79L60.8204 31.4374H50.6855L43.0683 35.1241L35.4511 31.4375H25.3163L19.6689 25.79C19.0738 25.195 18.1097 25.195 17.5147 25.79C16.9196 26.3851 16.9196 27.3492 17.5147 27.9443L23.162 33.5918V63.4297C23.162 65.9585 25.2032 68 27.7323 68H58.4042C60.9333 68 62.9745 65.9585 62.9745 63.4297V33.5918L68.6219 27.9444C69.2171 27.3492 69.2171 26.3852 68.622 25.79Z" fill="url(#paint0_radial_1021_5982)"/>
<path d="M49.0833 50.8985L45.8713 50.4314L44.4342 47.5214C43.9224 46.4799 42.2145 46.4799 41.7027 47.5214L40.2655 50.4314L37.0535 50.8985C35.8054 51.0796 35.3069 52.6171 36.2085 53.4961L38.5339 55.762L37.985 58.9621C37.7714 60.2046 39.0808 61.1556 40.1958 60.5674L43.0684 59.0573L45.9412 60.5673C47.0556 61.1542 48.3652 60.2024 48.152 58.962L47.603 55.7619L49.9284 53.496C50.8314 52.6158 50.3295 51.0793 49.0833 50.8985ZM35.4512 45.1485C35.4512 45.7578 35.8168 46.3063 36.3959 46.5499C36.9746 46.7938 37.6144 46.6719 38.041 46.2148L43.0684 41.2179L48.0958 46.2148C48.5422 46.7111 49.2933 46.7742 49.7409 46.5499C50.3201 46.3063 50.6857 45.7579 50.6857 45.1485V31.4375H35.4512V45.1485Z" fill="white"/>
<path d="M44.5924 23.6172C44.5924 24.4593 43.911 25.1406 43.069 25.1406C42.2269 25.1406 41.5455 24.4593 41.5455 23.6172V17.5234C41.5455 16.6814 42.2269 16 43.069 16C43.911 16 44.5924 16.6814 44.5924 17.5234V23.6172Z" fill="#EE9944"/>
<path d="M44.5924 23.6172C44.5924 24.4593 43.911 25.1406 43.069 25.1406C42.2269 25.1406 41.5455 24.4593 41.5455 23.6172V17.5234C41.5455 16.6814 42.2269 16 43.069 16C43.911 16 44.5924 16.6814 44.5924 17.5234V23.6172Z" fill="url(#paint1_radial_1021_5982)"/>
<path d="M30.2001 16.1607C30.9558 15.7858 31.8678 16.0893 32.2442 16.8421L35.2911 22.9358C35.6675 23.6886 35.3625 24.6036 34.6097 24.98C33.8493 25.3576 32.9401 25.0456 32.5655 24.2986L29.5187 18.2048C29.1423 17.452 29.4473 16.5371 30.2001 16.1607Z" fill="#EE9944"/>
<path d="M30.2001 16.1607C30.9558 15.7858 31.8678 16.0893 32.2442 16.8421L35.2911 22.9358C35.6675 23.6886 35.3625 24.6036 34.6097 24.98C33.8493 25.3576 32.9401 25.0456 32.5655 24.2986L29.5187 18.2048C29.1423 17.452 29.4473 16.5371 30.2001 16.1607Z" fill="url(#paint2_radial_1021_5982)"/>
<path d="M53.8937 16.8421C54.2716 16.0893 55.1836 15.7858 55.9379 16.1607C56.6907 16.5371 56.9956 17.452 56.6193 18.2048L53.5724 24.2986C53.1975 25.0462 52.2879 25.3572 51.5282 24.98C50.7754 24.6036 50.4704 23.6886 50.8468 22.9358L53.8937 16.8421Z" fill="#EE9944"/>
<path d="M53.8937 16.8421C54.2716 16.0893 55.1836 15.7858 55.9379 16.1607C56.6907 16.5371 56.9956 17.452 56.6193 18.2048L53.5724 24.2986C53.1975 25.0462 52.2879 25.3572 51.5282 24.98C50.7754 24.6036 50.4704 23.6886 50.8468 22.9358L53.8937 16.8421Z" fill="url(#paint3_radial_1021_5982)"/>
<defs>
<radialGradient id="paint0_radial_1021_5982" cx="0" cy="0" r="1" gradientUnits="userSpaceOnUse" gradientTransform="translate(70.6117 25.3438) rotate(139.208) scale(118.148 155.445)">
<stop stop-color="#FEAC2F"/>
<stop offset="0.327655" stop-color="#9B32AD"/>
<stop offset="0.699286" stop-color="#381AB2"/>
<stop offset="1" stop-color="#17082C"/>
</radialGradient>
<radialGradient id="paint1_radial_1021_5982" cx="0" cy="0" r="1" gradientUnits="userSpaceOnUse" gradientTransform="translate(57.5944 16) rotate(160.677) scale(49.9878 41.5192)">
<stop stop-color="#FEAC2F"/>
<stop offset="0.327655" stop-color="#9B32AD"/>
<stop offset="0.699286" stop-color="#381AB2"/>
<stop offset="1" stop-color="#17082C"/>
</radialGradient>
<radialGradient id="paint2_radial_1021_5982" cx="0" cy="0" r="1" gradientUnits="userSpaceOnUse" gradientTransform="translate(57.5944 16) rotate(160.677) scale(49.9878 41.5192)">
<stop stop-color="#FEAC2F"/>
<stop offset="0.327655" stop-color="#9B32AD"/>
<stop offset="0.699286" stop-color="#381AB2"/>
<stop offset="1" stop-color="#17082C"/>
</radialGradient>
<radialGradient id="paint3_radial_1021_5982" cx="0" cy="0" r="1" gradientUnits="userSpaceOnUse" gradientTransform="translate(57.5944 16) rotate(160.677) scale(49.9878 41.5192)">
<stop stop-color="#FEAC2F"/>
<stop offset="0.327655" stop-color="#9B32AD"/>
<stop offset="0.699286" stop-color="#381AB2"/>
<stop offset="1" stop-color="#17082C"/>
</radialGradient>
</defs>
</svg>
