<svg width="209" height="273" viewBox="0 0 209 273" fill="none" xmlns="http://www.w3.org/2000/svg">
<path d="M0.380859 272.528V268.396L9.85801 264.691C14.5358 262.747 17.7556 260.195 19.5782 257.036C21.4007 253.877 22.2512 249.564 22.2512 244.035V28.5518C22.2512 23.0234 21.5222 18.7101 20.0034 15.5511C18.4846 12.392 15.1433 9.84047 9.91875 7.89644L0.441623 4.19063V0.0595703H198.186L200.677 63.6658H196.546L178.806 24.846C176.316 19.8644 173.703 15.9156 170.969 12.878C168.236 9.84047 164.105 8.3217 158.576 8.3217H84.2779V127.637H128.444C133.972 127.637 138.164 126.179 141.019 123.323C143.875 120.468 146.426 116.519 148.674 111.538L156.936 95.0133H161.067V169.312H156.936L148.674 151.998C146.183 147.016 143.571 143.128 140.837 140.212C138.103 137.296 133.972 135.899 128.444 135.899H84.2779V264.265H167.689C173.217 264.265 177.47 262.807 180.507 259.952C183.545 257.036 185.975 253.026 187.919 247.802L204.869 208.982H209L206.509 272.588H0.502364L0.380859 272.528Z" fill="#E6E6E6"/>
</svg>
