<svg width="182" height="273" viewBox="0 0 182 273" fill="none" xmlns="http://www.w3.org/2000/svg">
<path d="M81.7761 272.529C67.3781 272.529 52.7979 270.768 37.9139 267.244C23.0299 263.72 10.6368 259.103 0.734375 253.332L2.6784 200.114H6.62718L18.7774 225.569C22.4224 232.859 26.3712 239.359 30.5023 244.948C34.6334 250.537 40.4047 254.912 47.6948 258.071C52.9194 260.683 57.9617 262.445 62.7611 263.356C67.5604 264.267 72.9672 264.753 78.9816 264.753C94.8983 264.753 107.474 260.44 116.769 251.813C126.003 243.187 130.681 232.13 130.681 218.522C130.681 205.703 127.522 195.74 121.264 188.571C115.007 181.403 104.922 174.417 91.1317 167.612L75.0935 160.565C52.6157 150.663 35.1194 139.242 22.4225 126.302C9.72551 113.362 3.40738 96.2301 3.40738 74.8457C3.40738 59.4757 7.41695 46.1105 15.3753 34.9324C23.3337 23.6934 34.4511 15.1276 48.6669 9.11321C62.8826 3.09887 79.5283 0.12207 98.6041 0.12207C112.455 0.12207 125.578 1.9446 137.971 5.58965C150.364 9.23471 161.117 14.2163 170.29 20.4736L167.921 67.4949H163.972L147.934 38.0914C143.499 28.9788 139.064 22.5392 134.629 18.7119C130.195 14.9453 125.092 12.2723 119.381 10.6927C115.979 9.65997 112.82 8.93096 109.965 8.56645C107.109 8.14119 103.403 7.95894 99.0294 7.95894C85.7249 7.95894 74.486 11.7863 65.3734 19.5016C56.2607 27.217 51.7044 37.6054 51.7044 50.6061C51.7044 63.6068 55.2279 74.542 62.2751 82.5003C69.3222 90.4587 79.6498 97.5666 93.1973 103.824L111.24 111.661C136.27 122.596 154.313 134.321 165.248 146.714C176.183 159.107 181.711 175.085 181.711 194.707C181.711 217.671 173.024 236.382 155.71 250.902C138.335 265.421 113.731 272.651 81.8976 272.651L81.7761 272.529Z" fill="#E6E6E6"/>
</svg>
