<svg width="238" height="273" viewBox="0 0 238 273" fill="none" xmlns="http://www.w3.org/2000/svg">
<path d="M64.8212 272.529V268.398L77.2144 265.117C86.8738 262.383 91.6731 255.458 91.6731 244.462V166.032L23.5106 27.3379C21.0198 21.8096 18.772 17.7393 16.7065 14.9447C14.641 12.1502 11.5427 9.84165 7.41161 7.89762L0 4.19181V0.0607509H110.627V4.19181L103.216 7.10786C97.1407 9.59865 93.8602 12.9399 93.3134 17.1925C92.7667 21.4451 93.8602 26.7304 96.594 33.1093L145.316 141.246L199.81 28.9174C201.997 24.5434 202.908 19.9871 202.483 15.3092C202.058 10.6314 199.081 7.59387 193.613 6.1966L187.842 4.13106V0H237.354V4.13106L229.517 7.04711C224.292 8.99114 220.404 11.6642 217.974 15.0662C215.484 18.529 212.993 22.8424 210.563 28.0669L154.004 146.957V244.401C154.004 249.929 155.036 254.364 157.102 257.827C159.167 261.29 162.812 263.659 168.037 265.056L180.856 268.337V272.468H64.8212V272.529Z" fill="#E6E6E6"/>
</svg>
